:FULLY-SPECIFIED
:FORCE-ALL-JOINTS-BE-3DOF
:DEGREES
204
root -2.89834 16.3096 -36.1129 3.76588 0.645354 -2.89059
lfemur -23.7625 6.63767 -8.25635
ltibia 48.3744 0 0
lfoot -23.6558 0.405284 4.54421e-05
ltoes -9.70658 0 0
rfemur -23.7253 -7.42867 14.589
rtibia 50.4615 0 0
rfoot -27.4757 2.00868 -0.000467507
rtoes -8.22348 0 0
lowerback 7.29867 1.95558 -1.70131
upperback -3.76066 2.54002 1.29704
thorax -8.20356 1.3748 1.96017
lowerneck -3.37332 -3.90941 -6.54766
upperneck 6.82095 -5.27847 6.02987
head 3.21346 -2.59937 2.96228
lclavicle -1.27412e-14 2.14475e-16 -3.82327e-32
lhumerus -26.5932 -1.87499 88.7727
lradius 24.3099 0 0
lwrist -31.382 0 0
lhand -28.2468 30.0946 1.79557e-06
lfingers 7.12502 0 0
lthumb -1.62429 60.0681 1.85707e-06
rclavicle -1.27412e-14 2.14475e-16 -3.82327e-32
rhumerus -32.2896 1.9636 -79.8806
rradius 30.3864 0 0
rwrist 3.15062 0 0
rhand -20.0872 -26.8183 -2.7507e-05
rfingers 7.12502 0 0
rthumb 6.25561 -56.706 -2.60809e-05
205
root -2.89986 16.3073 -36.1118 3.76711 0.656799 -2.90701
lfemur -23.8311 6.68161 -8.21475
ltibia 48.5238 0 0
lfoot -23.7333 0.401574 2.56869e-05
ltoes -9.76026 0 0
rfemur -23.7848 -7.49669 14.6221
rtibia 50.6055 0 0
rfoot -27.5601 2.03709 -0.000264666
rtoes -8.25793 0 0
lowerback 7.29516 1.95468 -1.69864
upperback -3.7544 2.53935 1.30022
thorax -8.19474 1.37431 1.96232
lowerneck -3.40342 -3.91452 -6.544
upperneck 6.86153 -5.28522 6.02753
head 3.23336 -2.60226 2.96025
lclavicle -1.28916e-14 3.62517e-16 -2.05103e-32
lhumerus -26.5716 -1.88317 88.7833
lradius 24.3142 0 0
lwrist -31.3777 0 0
lhand -28.2385 30.1045 1.1993e-06
lfingers 7.12502 0 0
lthumb -1.61634 60.0781 1.22767e-06
rclavicle -1.28916e-14 3.62517e-16 -2.05103e-32
rhumerus -32.2557 1.98345 -79.9091
rradius 30.4202 0 0
rwrist 3.13748 0 0
rhand -20.0849 -26.82 -1.46988e-05
rfingers 7.12502 0 0
rthumb 6.25787 -56.7076 -1.39369e-05
206
root -2.90138 16.305 -36.1106 3.76868 0.66911 -2.9246
lfemur -23.9054 6.72898 -8.17025
ltibia 48.6848 0 0
lfoot -23.8168 0.397708 0
ltoes -9.81773 0 0
rfemur -23.8493 -7.56976 14.6577
rtibia 50.7605 0 0
rfoot -27.6509 2.06737 0
rtoes -8.29546 0 0
lowerback 7.29131 1.95374 -1.69565
upperback -3.74773 2.53866 1.30361
thorax -8.18527 1.37379 1.96455
lowerneck -3.43602 -3.91994 -6.54011
upperneck 6.9053 -5.29236 6.02499
head 3.25484 -2.60532 2.95808
lclavicle -1.30647e-14 4.96962e-16 0
lhumerus -26.5489 -1.89002 88.794
lradius 24.3179 0 0
lwrist -31.374 0 0
lhand -28.2296 30.1145 0
lfingers 7.12502 0 0
lthumb -1.6077 60.0882 0
rclavicle -1.30647e-14 4.96962e-16 0
rhumerus -32.2196 2.00376 -79.9386
rradius 30.4557 0 0
rwrist 3.12415 0 0
rhand -20.0827 -26.8213 0
rfingers 7.12502 0 0
rthumb 6.25995 -56.7088 0
207
root -2.90104 16.303 -36.1104 3.76487 0.668667 -2.92496
lfemur -23.9162 6.73626 -8.16615
ltibia 48.7191 0 0
lfoot -23.8349 0.400119 -2.34855e-05
ltoes -9.83167 0 0
rfemur -23.8607 -7.58375 14.6584
rtibia 50.7952 0 0
rfoot -27.6702 2.07576 1.18678e-05
rtoes -8.29911 0 0
lowerback 7.29567 1.95352 -1.69607
upperback -3.74493 2.53835 1.30484
thorax -8.18486 1.37366 1.96604
lowerneck -3.46643 -3.89431 -6.51092
upperneck 6.93282 -5.25677 5.99571
head 3.26615 -2.58742 2.94458
lclavicle -1.28283e-14 5.61656e-16 -2.27421e-33
lhumerus -26.5483 -1.89601 88.7981
lradius 24.3216 0 0
lwrist -31.364 0 0
lhand -28.2287 30.1202 -1.97222e-06
lfingers 7.12502 0 0
lthumb -1.6068 60.0939 -1.90982e-06
rclavicle -1.28283e-14 5.61656e-16 -2.27421e-33
rhumerus -32.2126 2.00536 -79.9374
rradius 30.459 0 0
rwrist 3.12707 0 0
rhand -20.078 -26.8175 1.50673e-05
rfingers 7.12502 0 0
rthumb 6.26451 -56.7048 1.48664e-05
208
root -2.9007 16.3011 -36.1102 3.7616 0.668275 -2.92525
lfemur -23.9254 6.74246 -8.16267
ltibia 48.7484 0 0
lfoot -23.8504 0.402192 -4.29856e-05
ltoes -9.84357 0 0
rfemur -23.8704 -7.59568 14.6589
rtibia 50.8249 0 0
rfoot -27.6866 2.08293 2.39883e-05
rtoes -8.30221 0 0
lowerback 7.29941 1.95334 -1.69643
upperback -3.74254 2.53808 1.3059
thorax -8.18451 1.37355 1.96732
lowerneck -3.49248 -3.87231 -6.4859
upperneck 6.95636 -5.22622 5.97061
head 3.27582 -2.57205 2.933
lclavicle -1.26255e-14 6.16739e-16 -4.01244e-33
lhumerus -26.5479 -1.90112 88.8015
lradius 24.3247 0 0
lwrist -31.3554 0 0
lhand -28.2279 30.1251 -3.72343e-06
lfingers 7.12502 0 0
lthumb -1.60603 60.0988 -3.60549e-06
rclavicle -1.26255e-14 6.16739e-16 -4.01244e-33
rhumerus -32.2067 2.00671 -79.9364
rradius 30.4617 0 0
rwrist 3.1296 0 0
rhand -20.0739 -26.8142 2.77368e-05
rfingers 7.12502 0 0
rthumb 6.26841 -56.7014 2.73637e-05
209
root -2.90037 16.2991 -36.1099 3.75881 0.667915 -2.92546
lfemur -23.9331 6.74765 -8.15981
ltibia 48.7731 0 0
lfoot -23.8634 0.40397 -5.90796e-05
ltoes -9.85358 0 0
rfemur -23.8786 -7.60569 14.6593
rtibia 50.8498 0 0
rfoot -27.7004 2.08896 3.52668e-05
rtoes -8.30479 0 0
lowerback 7.30261 1.95318 -1.69674
upperback -3.74052 2.53786 1.30679
thorax -8.18424 1.37346 1.96841
lowerneck -3.51461 -3.85354 -6.46459
upperneck 6.97633 -5.20016 5.94923
head 3.28402 -2.55894 2.92314
lclavicle -1.24526e-14 6.628e-16 -5.34105e-33
lhumerus -26.5475 -1.90541 88.8045
lradius 24.3273 0 0
lwrist -31.3482 0 0
lhand -28.2272 30.1292 -5.23681e-06
lfingers 7.12502 0 0
lthumb -1.60539 60.1029 -5.07079e-06
rclavicle -1.24526e-14 6.628e-16 -5.34105e-33
rhumerus -32.2017 2.00779 -79.9354
rradius 30.464 0 0
rwrist 3.13181 0 0
rhand -20.0705 -26.8114 3.83401e-05
rfingers 7.12502 0 0
rthumb 6.27173 -56.6985 3.78208e-05
210
root -2.90003 16.2971 -36.1097 3.75646 0.667569 -2.92558
lfemur -23.9394 6.75189 -8.15754
ltibia 48.7934 0 0
lfoot -23.8742 0.405495 -7.22743e-05
ltoes -9.86186 0 0
rfemur -23.8853 -7.61393 14.6595
rtibia 50.8704 0 0
rfoot -27.7118 2.09397 4.48633e-05
rtoes -8.30687 0 0
lowerback 7.30533 1.95306 -1.69701
upperback -3.73882 2.53767 1.30753
thorax -8.18404 1.37338 1.96931
lowerneck -3.53326 -3.8376 -6.44655
upperneck 6.99311 -5.17804 5.93113
head 3.2909 -2.54782 2.91479
lclavicle -1.23059e-14 7.00426e-16 -6.36192e-33
lhumerus -26.5474 -1.90895 88.8069
lradius 24.3295 0 0
lwrist -31.342 0 0
lhand -28.2267 30.1326 -6.50374e-06
lfingers 7.12502 0 0
lthumb -1.60488 60.1063 -6.2974e-06
rclavicle -1.23059e-14 7.00426e-16 -6.36192e-33
rhumerus -32.1976 2.00859 -79.9345
rradius 30.4657 0 0
rwrist 3.13375 0 0
rhand -20.0676 -26.8089 4.71779e-05
rfingers 7.12502 0 0
rthumb 6.27452 -56.696 4.65359e-05
